<mxfile host="65bd71144e">
    <diagram id="kfqbYSQvsbw34wrSjgwR" name="Page-1">
        <mxGraphModel dx="1174" dy="787" grid="1" gridSize="10" guides="1" tooltips="1" connect="1" arrows="1" fold="1" page="1" pageScale="1" pageWidth="850" pageHeight="1100" math="0" shadow="0">
            <root>
                <mxCell id="0"/>
                <mxCell id="1" parent="0"/>
                <mxCell id="2" value="" style="endArrow=none;html=1;rounded=0;endFill=0;startArrow=none;" parent="1" edge="1">
                    <mxGeometry width="50" height="50" relative="1" as="geometry">
                        <mxPoint x="40" y="400" as="sourcePoint"/>
                        <mxPoint x="760" y="400" as="targetPoint"/>
                    </mxGeometry>
                </mxCell>
                <UserObject label="Upload Shareable Data Package to Repository" link="#upload-your-shareable-data-package-to-your-repository" id="5">
                    <mxCell style="rounded=0;whiteSpace=wrap;html=1;fillColor=#532565;fontColor=#F0F0F0;fontStyle=1;glass=0;fontSize=13;strokeColor=#532565;" parent="1" vertex="1">
                        <mxGeometry x="707" y="368" width="124" height="63" as="geometry"/>
                    </mxCell>
                </UserObject>
                <mxCell id="58" value="" style="endArrow=none;html=1;fontColor=#0F0F0F;rounded=0;" parent="1" edge="1">
                    <mxGeometry width="50" height="50" relative="1" as="geometry">
                        <mxPoint x="105" y="340" as="sourcePoint"/>
                        <mxPoint x="105" y="400" as="targetPoint"/>
                    </mxGeometry>
                </mxCell>
                <UserObject label="Copy over files to share" link="#copy-managed-access-files-into-your-shareable-data-package-folder" id="135">
                    <mxCell style="rounded=0;whiteSpace=wrap;html=1;fillColor=#982568;fontColor=#0F0F0F;fontStyle=1;opacity=50;" parent="1" vertex="1">
                        <mxGeometry x="330" y="460" width="130" height="50" as="geometry"/>
                    </mxCell>
                </UserObject>
                <mxCell id="136" value="" style="endArrow=none;html=1;fontColor=#0F0F0F;rounded=0;" parent="1" edge="1">
                    <mxGeometry width="50" height="50" relative="1" as="geometry">
                        <mxPoint x="290" y="400" as="sourcePoint"/>
                        <mxPoint x="290" y="340" as="targetPoint"/>
                    </mxGeometry>
                </mxCell>
                <mxCell id="137" value="" style="endArrow=none;html=1;fontColor=#0F0F0F;rounded=0;" parent="1" edge="1">
                    <mxGeometry width="50" height="50" relative="1" as="geometry">
                        <mxPoint x="450" y="400" as="sourcePoint"/>
                        <mxPoint x="450" y="340" as="targetPoint"/>
                    </mxGeometry>
                </mxCell>
                <mxCell id="138" value="" style="endArrow=none;html=1;fontColor=#0F0F0F;rounded=0;" parent="1" edge="1">
                    <mxGeometry width="50" height="50" relative="1" as="geometry">
                        <mxPoint x="393" y="460" as="sourcePoint"/>
                        <mxPoint x="393" y="400" as="targetPoint"/>
                    </mxGeometry>
                </mxCell>
                <mxCell id="139" value="" style="endArrow=none;html=1;fontColor=#0F0F0F;rounded=0;" parent="1" edge="1">
                    <mxGeometry width="50" height="50" relative="1" as="geometry">
                        <mxPoint x="245" y="400" as="sourcePoint"/>
                        <mxPoint x="245" y="460" as="targetPoint"/>
                    </mxGeometry>
                </mxCell>
                <UserObject label="Zip up shareable data package" link="#zip-up-your-shareable-data-package" id="140">
                    <mxCell style="rounded=0;whiteSpace=wrap;html=1;fillColor=#982568;fontColor=#0F0F0F;fontStyle=1;opacity=50;" parent="1" vertex="1">
                        <mxGeometry x="480" y="460" width="130" height="50" as="geometry"/>
                    </mxCell>
                </UserObject>
                <UserObject label="Identify resources that meet sharing requirements" link="#identify-resources-that-meet-sharing-requirements" id="141">
                    <mxCell style="rounded=0;whiteSpace=wrap;html=1;fillColor=#982568;fontColor=#0F0F0F;fontStyle=1;opacity=50;" parent="1" vertex="1">
                        <mxGeometry x="230" y="290" width="130" height="50" as="geometry"/>
                    </mxCell>
                </UserObject>
                <UserObject label="Prepare Resource Tracker and Results Tracker(s)" link="#prepare-resource-and-results-trackers" id="142">
                    <mxCell style="rounded=0;whiteSpace=wrap;html=1;fillColor=#982568;fontColor=#0F0F0F;fontStyle=1;opacity=50;" parent="1" vertex="1">
                        <mxGeometry x="380" y="290" width="130" height="50" as="geometry"/>
                    </mxCell>
                </UserObject>
                <mxCell id="143" value="" style="endArrow=none;html=1;fontColor=#0F0F0F;rounded=0;" parent="1" edge="1">
                    <mxGeometry width="50" height="50" relative="1" as="geometry">
                        <mxPoint x="543" y="460" as="sourcePoint"/>
                        <mxPoint x="543" y="400" as="targetPoint"/>
                    </mxGeometry>
                </mxCell>
                <mxCell id="144" value="" style="endArrow=none;html=1;fontColor=#0F0F0F;rounded=0;" parent="1" edge="1">
                    <mxGeometry width="50" height="50" relative="1" as="geometry">
                        <mxPoint x="590" y="400" as="sourcePoint"/>
                        <mxPoint x="590" y="340" as="targetPoint"/>
                    </mxGeometry>
                </mxCell>
                <UserObject label="Create shareable data package folder" link="#create-your-shareable-data-package-folder" id="148">
                    <mxCell style="rounded=0;whiteSpace=wrap;html=1;fillColor=#982568;fontColor=#0F0F0F;fontStyle=1;opacity=50;" parent="1" vertex="1">
                        <mxGeometry x="180" y="460" width="130" height="50" as="geometry"/>
                    </mxCell>
                </UserObject>
                <UserObject label="&lt;font color=&quot;#ffffff&quot; style=&quot;font-size: 13px;&quot;&gt;&lt;b style=&quot;font-size: 13px;&quot;&gt;Create Managed-Access Now Shareable Data Package&lt;/b&gt;&lt;/font&gt;" id="113">
                    <mxCell style="shape=singleArrow;whiteSpace=wrap;html=1;arrowWidth=0.6;arrowSize=0.042105263157894736;fillColor=#532565;strokeColor=#532565;fontSize=13;labelBorderColor=none;" parent="1" vertex="1">
                        <mxGeometry x="182" y="381" width="475" height="40" as="geometry"/>
                    </mxCell>
                </UserObject>
                <UserObject label="&lt;b&gt;Decide what type of shareable data package(s) you will submit&lt;/b&gt;" id="124">
                    <mxCell style="swimlane;fontStyle=0;childLayout=stackLayout;horizontal=1;startSize=50;horizontalStack=0;resizeParent=1;resizeParentMax=0;resizeLast=0;collapsible=1;marginBottom=0;whiteSpace=wrap;html=1;rounded=0;shadow=0;glass=0;fillColor=#982568;gradientColor=none;gradientDirection=radial;opacity=50;" parent="1" vertex="1" collapsed="1">
                        <mxGeometry x="20" y="290" width="170" height="50" as="geometry">
                            <mxRectangle x="20" y="290" width="175" height="190" as="alternateBounds"/>
                        </mxGeometry>
                    </mxCell>
                </UserObject>
                <mxCell id="125" value="Open-access now" style="rounded=0;whiteSpace=wrap;html=1;" parent="124" vertex="1">
                    <mxGeometry y="50" width="175" height="30" as="geometry"/>
                </mxCell>
                <mxCell id="126" value="Open-access by specified date" style="rounded=0;whiteSpace=wrap;html=1;" parent="124" vertex="1">
                    <mxGeometry y="80" width="175" height="30" as="geometry"/>
                </mxCell>
                <mxCell id="127" value="Managed-access now" style="rounded=0;whiteSpace=wrap;html=1;" parent="124" vertex="1">
                    <mxGeometry y="110" width="175" height="30" as="geometry"/>
                </mxCell>
                <mxCell id="128" value="Managed access by specified date" style="rounded=0;whiteSpace=wrap;html=1;" parent="124" vertex="1">
                    <mxGeometry y="140" width="175" height="50" as="geometry"/>
                </mxCell>
                <UserObject label="&lt;b&gt;Prepare other materials for submission&lt;/b&gt;" link="#prepare-other-materials-for-submission" id="145">
                    <mxCell style="swimlane;fontStyle=0;childLayout=stackLayout;horizontal=1;startSize=50;horizontalStack=0;resizeParent=1;resizeParentMax=0;resizeLast=0;collapsible=1;marginBottom=0;whiteSpace=wrap;html=1;rounded=0;shadow=0;glass=0;fillColor=#982568;gradientColor=none;gradientDirection=radial;opacity=50;swimlaneLine=1;" parent="1" vertex="1" collapsed="1">
                        <mxGeometry x="527" y="290" width="130" height="50" as="geometry">
                            <mxRectangle x="527" y="290" width="190" height="110" as="alternateBounds"/>
                        </mxGeometry>
                    </mxCell>
                </UserObject>
                <mxCell id="146" value="Edited Overview Resource Tracker" style="text;strokeColor=default;fillColor=#FFFFFF;align=center;verticalAlign=middle;spacingLeft=4;spacingRight=4;overflow=hidden;points=[[0,0.5],[1,0.5]];portConstraint=eastwest;rotatable=0;whiteSpace=wrap;html=1;rounded=0;shadow=0;glass=0;" parent="145" vertex="1">
                    <mxGeometry y="50" width="190" height="30" as="geometry"/>
                </mxCell>
                <mxCell id="147" value="&lt;span style=&quot;font-weight: 400;&quot;&gt;README&lt;/span&gt;" style="text;strokeColor=default;fillColor=#FFFFFF;align=center;verticalAlign=middle;spacingLeft=4;spacingRight=4;overflow=hidden;points=[[0,0.5],[1,0.5]];portConstraint=eastwest;rotatable=0;whiteSpace=wrap;html=1;rounded=0;shadow=0;glass=0;fontStyle=1" parent="145" vertex="1">
                    <mxGeometry y="80" width="190" height="30" as="geometry"/>
                </mxCell>
            </root>
        </mxGraphModel>
    </diagram>
</mxfile>